<?xml version="1.0" standalone="no"?>
<!DOCTYPE svg PUBLIC "-//W3C//DTD SVG 20010904//EN"
 "http://www.w3.org/TR/2001/REC-SVG-20010904/DTD/svg10.dtd">
<svg version="1.0" xmlns="http://www.w3.org/2000/svg"
 width="1276.000000pt" height="1280.000000pt" viewBox="0 0 1276.000000 1280.000000"
 preserveAspectRatio="xMidYMid meet">
<g transform="translate(0.000000,1280.000000) scale(0.100000,-0.100000)"
fill="#000000" stroke="none">
<path d="M12063 12757 c-16 -18 -90 -106 -163 -197 -73 -91 -139 -172 -147
-181 -12 -14 -1 -61 82 -342 52 -179 95 -328 95 -331 0 -4 132 -6 294 -6 l294
0 116 214 116 213 -118 254 -117 254 -115 42 c-63 22 -158 57 -211 76 l-97 35
-29 -31z"/>
<path d="M6222 12428 c-1 -9 -16 -178 -32 -375 -71 -837 -158 -1687 -176
-1711 -10 -14 -14 -14 -40 3 -16 11 -42 25 -59 32 -16 6 -79 32 -140 57 -244
100 -482 141 -785 133 -107 -3 -202 -7 -210 -10 -8 -3 -64 -15 -125 -27 -60
-12 -186 -47 -279 -78 -159 -53 -169 -55 -182 -38 -7 10 -65 110 -129 223 -65
112 -119 202 -122 200 -2 -3 34 -107 81 -231 48 -125 86 -235 86 -245 0 -11
-15 -25 -42 -37 -73 -32 -288 -166 -388 -241 -138 -103 -288 -240 -380 -345
-44 -51 -80 -96 -80 -100 0 -4 179 -8 397 -7 l398 0 21 -33 c12 -19 99 -180
194 -359 228 -432 246 -449 55 -54 -105 218 -205 433 -205 443 0 4 62 6 137 6
l138 -2 34 -78 c82 -190 317 -875 308 -898 -3 -7 -34 -21 -68 -31 -92 -27
-319 -145 -424 -220 -49 -36 -95 -65 -101 -65 -6 0 -16 50 -23 120 l-13 120
-27 0 c-15 0 -155 -18 -310 -41 l-283 -40 -106 63 c-59 34 -208 124 -332 199
-124 75 -241 143 -260 152 -19 8 -118 66 -220 129 -196 121 -230 141 -230 135
0 -3 95 -87 210 -187 116 -101 210 -186 210 -190 0 -3 60 -60 132 -126 295
-265 598 -577 693 -710 14 -21 -13 -36 -50 -29 -16 3 -96 8 -177 12 -168 6
-279 -9 -433 -59 -141 -46 -337 -155 -475 -267 -89 -72 -204 -184 -217 -213
-10 -22 -8 -23 26 -23 34 -1 249 -68 339 -106 l42 -18 -64 -93 c-81 -119 -146
-235 -203 -368 -38 -88 -83 -231 -83 -261 0 -5 188 -10 417 -11 l417 -3 -74
-55 c-41 -30 -110 -86 -154 -124 l-80 -68 -71 5 c-177 15 -496 30 -502 24 -18
-19 32 -26 272 -41 142 -9 261 -19 263 -21 9 -8 -120 -143 -141 -148 -12 -3
-96 -8 -187 -12 -91 -3 -175 -8 -188 -11 -47 -10 -9 -22 90 -28 170 -11 238
-18 238 -25 0 -4 -29 -55 -64 -113 -71 -118 -138 -271 -134 -303 2 -16 12 -21
46 -23 l42 -3 -32 -47 c-18 -26 -51 -69 -74 -97 -22 -27 -47 -61 -54 -75 -7
-14 -22 -35 -33 -47 -18 -20 -18 -23 -4 -23 13 0 17 -9 17 -43 0 -60 29 -222
49 -277 l17 -45 84 -5 85 -5 -58 -33 c-32 -19 -70 -44 -85 -57 -15 -12 -110
-66 -212 -120 -102 -53 -192 -104 -200 -113 -20 -20 -22 -21 200 81 102 47
210 94 240 105 30 11 114 46 186 76 72 31 146 59 165 62 l34 6 -25 -21 c-14
-11 -90 -57 -170 -102 -80 -45 -163 -94 -185 -109 -22 -15 -59 -37 -83 -49
-23 -12 -42 -24 -42 -26 0 -3 14 2 31 11 17 8 72 33 123 53 50 21 161 71 248
111 113 53 163 71 180 66 31 -8 71 -43 63 -56 -13 -20 -634 -385 -1130 -662
-237 -133 -233 -135 25 -19 74 34 143 59 153 57 10 -3 136 52 280 121 144 69
278 131 297 138 19 7 67 27 105 45 110 51 347 140 371 140 18 0 23 -8 28 -42
4 -24 13 -54 20 -68 12 -21 20 -24 60 -21 25 1 46 -1 46 -6 0 -5 -18 -22 -40
-39 -22 -16 -40 -32 -40 -36 -1 -28 -1016 -628 -1062 -628 -33 1 -543 130
-546 138 -1 5 -11 8 -21 5 -10 -3 -22 0 -25 6 -4 5 -13 8 -20 5 -7 -3 -42 2
-77 10 -62 14 -70 13 -277 -24 -117 -20 -215 -40 -218 -42 -2 -3 0 -27 5 -54
18 -87 93 -507 101 -564 14 -90 70 -382 76 -392 11 -17 927 -469 935 -461 4 4
53 114 107 244 l99 235 -53 360 c-30 197 -54 369 -54 381 0 26 3 27 395 159
409 137 609 184 780 184 139 -1 197 -41 203 -143 17 -262 -362 -810 -1656
-2399 -57 -71 -101 -128 -98 -128 3 0 164 172 358 383 975 1057 1603 1727
1619 1727 28 0 -2 -37 -414 -505 -165 -187 -309 -351 -321 -364 -12 -14 105
103 259 258 477 482 667 636 712 575 20 -27 17 -37 -30 -106 -58 -85 -62 -93
-49 -84 18 11 14 -9 -14 -82 -41 -101 -246 -503 -344 -672 -163 -282 -534
-897 -794 -1319 -104 -168 -136 -224 -119 -206 6 6 149 197 320 425 589 790
988 1281 1303 1604 179 183 269 256 318 256 25 0 55 12 92 35 49 32 61 35 127
35 l72 0 10 -37 c67 -238 -173 -1118 -668 -2457 -44 -121 -79 -221 -78 -223 2
-2 59 102 127 229 411 776 769 1379 1039 1753 89 124 211 275 222 275 5 0 9
-15 10 -32 1 -29 3 -25 19 26 14 43 32 73 67 108 47 49 49 50 98 45 113 -12
250 -29 254 -33 2 -2 -14 -41 -37 -86 -50 -102 -74 -184 -70 -240 l3 -43 137
-9 c76 -5 145 -6 154 -2 14 5 15 20 9 129 l-7 123 78 -7 c148 -14 302 -10 336
7 35 18 33 19 73 -57 22 -43 23 -51 14 -115 -13 -92 -7 -114 31 -114 38 0 49
-17 101 -156 122 -323 284 -1014 444 -1889 25 -137 48 -254 50 -260 6 -11 3
79 -22 685 -21 521 -24 1514 -5 1705 14 136 36 264 49 276 5 4 94 15 198 24
105 9 200 19 213 22 17 4 32 -2 54 -23 108 -102 294 -379 642 -957 95 -159
383 -661 716 -1250 139 -246 254 -446 256 -444 4 4 -61 211 -394 1272 -146
464 -258 831 -311 1022 l-20 73 55 69 c30 38 54 72 54 74 0 3 -32 8 -70 12
-53 5 -73 12 -80 25 -5 10 -24 87 -42 172 -28 134 -32 173 -32 313 -1 150 0
163 22 201 13 22 37 48 52 57 36 22 129 22 201 1 77 -23 222 -92 315 -151 43
-27 111 -68 149 -90 194 -113 752 -521 1530 -1118 421 -323 415 -318 415 -313
0 3 -64 60 -142 129 -455 395 -982 876 -1281 1169 -305 298 -482 510 -475 569
11 92 282 -27 893 -392 110 -65 205 -122 210 -125 29 -15 -38 39 -185 148
-495 370 -815 667 -850 790 -35 122 205 87 690 -102 204 -80 690 -291 984
-429 82 -38 151 -68 152 -66 2 2 -63 39 -144 82 -81 43 -174 95 -207 116 -33
20 -157 90 -275 154 -470 258 -1015 578 -1083 637 l-32 28 75 -31 c41 -18 158
-69 259 -115 102 -46 186 -83 187 -81 1 1 -76 42 -172 91 -96 49 -173 91 -170
93 7 8 223 -92 551 -254 182 -90 321 -156 310 -148 -11 9 -137 87 -280 172
-258 155 -531 326 -549 344 -5 5 -7 11 -5 14 3 2 158 5 345 6 l339 2 144 -62
c79 -33 153 -61 163 -61 11 0 112 -41 226 -91 114 -50 214 -93 222 -96 8 -2
-97 53 -235 123 -137 69 -265 139 -283 155 -18 16 -50 38 -72 49 -51 26 -59
40 -20 35 16 -2 30 1 30 6 0 25 -93 143 -184 235 -161 160 -319 262 -531 344
-72 28 -76 30 -35 25 62 -8 333 -67 579 -126 112 -27 206 -48 208 -46 2 2 -54
21 -124 42 -136 40 -458 146 -658 215 -236 82 -352 138 -379 183 -39 64 202
88 899 90 403 0 415 1 290 13 -390 38 -461 46 -470 54 -5 4 -75 18 -155 30
-80 11 -170 27 -200 35 -53 13 -48 13 128 14 198 1 193 0 172 57 -15 39 -2 44
119 44 57 0 102 2 100 5 -3 2 -50 9 -105 15 -153 16 -147 14 -189 83 -21 34
-51 76 -68 94 -27 29 -28 32 -11 41 28 14 240 48 479 77 115 14 217 26 225 27
8 1 -185 5 -430 8 -410 5 -448 7 -482 25 -21 10 -38 24 -38 30 0 6 38 30 85
53 47 23 85 46 85 50 0 5 -16 31 -37 57 -32 42 -34 49 -20 60 38 28 567 193
947 295 172 47 204 59 152 60 -18 0 -210 -11 -425 -25 -216 -13 -471 -29 -567
-35 -96 -6 -212 -13 -256 -16 l-82 -6 -46 58 c-25 32 -42 62 -37 67 9 9 217
56 495 113 104 21 184 40 178 42 -6 2 -89 -6 -184 -17 -233 -28 -385 -41 -490
-41 l-87 0 -26 35 c-15 19 -24 38 -21 44 9 15 171 79 270 108 96 27 134 42
106 43 -8 0 -82 -9 -165 -20 -82 -10 -185 -22 -227 -26 -77 -7 -77 -6 -89 20
-7 14 -10 28 -7 31 8 8 297 105 313 105 11 0 15 -12 15 -45 l0 -45 119 0 119
0 6 31 c3 17 6 51 6 75 0 37 3 44 23 49 12 3 87 20 167 37 l145 32 373 3 c204
3 372 6 372 9 0 10 -50 83 -98 143 -241 300 -557 498 -937 587 -114 27 -133
28 -357 29 -131 0 -237 3 -235 7 1 4 25 24 53 45 317 237 444 334 444 339 0 3
-19 -5 -42 -19 -89 -50 -247 -137 -338 -184 -52 -27 -171 -91 -263 -142 -245
-135 -543 -278 -614 -296 -47 -12 -68 -13 -83 -5 -78 42 67 242 546 750 111
118 229 243 261 277 183 197 460 478 473 481 11 2 28 -23 55 -78 22 -45 44
-85 50 -90 12 -9 314 -45 321 -37 6 6 -205 357 -215 357 -4 0 -22 -5 -40 -11
-18 -6 -35 -9 -38 -6 -3 3 21 34 53 69 33 35 50 56 39 47 -37 -29 -380 -332
-495 -439 -63 -58 -133 -119 -155 -136 -22 -16 -168 -151 -325 -299 -500 -474
-605 -559 -647 -524 -45 38 80 346 368 906 71 139 134 264 139 278 20 53 -8
21 -60 -67 -176 -302 -363 -608 -371 -608 -5 0 -9 29 -9 65 0 36 -3 65 -6 65
-4 0 -57 -32 -118 -70 -61 -39 -115 -70 -121 -69 -5 0 -9 10 -7 22 1 16 -5 11
-23 -18 -13 -22 -27 -47 -30 -55 -70 -176 -221 -408 -277 -426 -52 -16 -62 81
-27 262 11 58 18 108 16 110 -2 2 -20 -20 -40 -49 -52 -75 -102 -121 -123
-113 -14 5 -16 16 -10 72 8 74 74 312 136 483 22 63 39 118 37 124 -2 6 -36
-46 -77 -114 -156 -263 -330 -519 -394 -578 -14 -13 -34 -25 -45 -26 -11 -1
-26 -7 -35 -14 -18 -15 -48 -11 -54 7 -2 8 8 12 32 12 19 0 37 4 40 8 9 15
-33 226 -69 352 -34 115 -36 132 -31 215 5 93 39 351 57 442 l10 53 900 2 900
3 -52 75 c-96 136 -263 297 -429 412 -200 139 -518 246 -787 264 -108 7 -410
-13 -419 -28 -3 -4 -14 -8 -25 -8 -25 0 -25 41 1 253 16 136 75 666 95 856 3
30 4 53 1 50 -3 -2 -39 -196 -80 -429 -97 -542 -136 -742 -147 -756 -5 -6 -44
-24 -87 -39 -103 -37 -252 -112 -377 -190 -57 -36 -107 -65 -113 -65 -5 0 -17
-9 -27 -20 -10 -11 -25 -20 -34 -20 -9 0 -55 34 -102 75 l-87 75 -6 747 c-6
670 -20 1555 -24 1511z m708 -2788 c0 -34 -22 -175 -30 -189 -5 -9 -28 25 -69
97 -33 61 -61 112 -61 114 0 2 36 2 80 0 71 -3 80 -6 80 -22z m-1933 -46 c8
-22 19 -58 25 -82 l10 -42 -65 -70 c-37 -38 -74 -81 -83 -95 -9 -14 -20 -25
-24 -25 -7 0 -180 306 -192 340 -5 13 16 15 155 14 l161 -2 13 -38z m281 33
c-7 -4 -52 -32 -100 -61 -48 -30 -90 -51 -93 -47 -2 5 -7 33 -11 62 l-6 54
112 0 c61 0 106 -3 98 -8z m2742 -942 c24 -73 31 -80 60 -65 46 25 38 -1 -35
-105 -83 -119 -151 -195 -173 -195 -25 0 -8 103 43 260 69 211 70 212 105 105z
m-2420 7 c0 -36 -5 -54 -20 -67 -20 -18 -23 -17 -113 13 -50 17 -111 36 -134
42 -36 9 -43 15 -43 35 l0 25 155 0 155 0 0 -48z m3880 -1207 c0 -41 -3 -43
-227 -79 -186 -31 -303 -42 -303 -30 0 6 28 40 63 77 l62 67 203 0 202 0 0
-35z m359 31 c-2 -2 -22 -6 -44 -9 -28 -5 -34 -4 -20 3 19 8 73 14 64 6z
m-7149 -134 c0 -5 -15 -26 -32 -46 l-33 -38 -79 32 c-149 59 -149 59 7 60 75
0 137 -4 137 -8z m3504 -4176 c22 -11 41 -25 43 -31 1 -5 -27 -25 -63 -44 -36
-19 -93 -56 -127 -82 -34 -27 -68 -49 -74 -49 -14 0 -43 62 -43 89 0 10 28 28
83 51 81 35 82 36 79 69 -3 32 -3 33 30 26 18 -4 51 -17 72 -29z"/>
<path d="M3281 11514 c-28 -44 -51 -84 -51 -91 0 -12 136 -70 145 -61 5 5 -32
218 -39 226 -3 2 -28 -31 -55 -74z"/>
<path d="M666 10037 c-48 -75 -216 -359 -216 -366 0 -4 87 -155 194 -336 l194
-329 345 -115 c190 -64 348 -113 351 -110 9 8 117 770 114 795 -2 13 -76 87
-188 189 -102 92 -196 178 -210 191 -22 20 -57 27 -280 59 -140 19 -263 37
-273 39 -10 3 -23 -5 -31 -17z"/>
<path d="M9029 9358 c-24 -29 -55 -65 -67 -80 -13 -16 -22 -28 -20 -28 9 0
140 151 136 156 -3 2 -25 -19 -49 -48z"/>
<path d="M651 8326 l-84 -85 63 -165 63 -166 138 0 138 0 15 53 c37 130 56
203 56 217 0 15 -277 230 -296 230 -5 0 -47 -38 -93 -84z"/>
<path d="M12120 7739 c-52 -29 -96 -53 -97 -54 -8 -5 103 -355 111 -352 13 4
176 229 176 242 0 30 -69 210 -81 212 -8 2 -57 -20 -109 -48z"/>
<path d="M1362 7304 l-83 -167 66 -99 c37 -55 68 -98 70 -96 6 6 37 495 33
514 -2 8 -40 -60 -86 -152z"/>
<path d="M12027 5313 c-9 -14 -45 -162 -41 -166 6 -6 197 33 206 42 5 4 -16
24 -45 46 -28 21 -66 49 -84 62 -17 13 -33 20 -36 16z"/>
<path d="M11236 4581 c-3 -4 -19 -63 -35 -131 -17 -69 -36 -133 -41 -142 -6
-10 -10 -20 -10 -23 0 -10 28 -5 32 5 2 6 56 20 122 32 134 25 131 22 142 132
l6 63 -106 36 c-58 19 -108 32 -110 28z"/>
<path d="M10111 3173 c5 -21 21 -85 36 -143 l28 -105 101 -3 101 -3 11 83 c7
45 9 85 4 90 -9 9 -268 118 -281 118 -5 0 -5 -15 0 -37z"/>
<path d="M9896 2495 c-55 -19 -101 -37 -104 -39 -4 -5 104 -246 116 -258 7 -7
223 159 237 183 8 12 -121 149 -140 149 -5 0 -55 -16 -109 -35z"/>
<path d="M2446 1270 c-115 -71 -213 -133 -218 -138 -9 -9 69 -23 207 -38 l60
-6 84 152 c46 83 82 153 79 155 -2 2 -97 -54 -212 -125z"/>
<path d="M6187 733 c-36 -65 -63 -121 -59 -124 10 -10 223 -71 229 -66 5 5
-86 288 -96 300 -4 4 -37 -46 -74 -110z"/>
</g>
</svg>
